<?xml version="1.0" standalone="no"?>
<!DOCTYPE svg PUBLIC "-//W3C//DTD SVG 20010904//EN"
 "http://www.w3.org/TR/2001/REC-SVG-20010904/DTD/svg10.dtd">
<svg version="1.0" xmlns="http://www.w3.org/2000/svg"
 width="512.000000pt" height="512.000000pt" viewBox="0 0 512.000000 512.000000"
 preserveAspectRatio="xMidYMid meet">

<g transform="translate(0.000000,512.000000) scale(0.100000,-0.100000)"
fill="#0d6efd" stroke="none">
<path d="M379 4906 c-103 -28 -190 -103 -238 -205 l-26 -56 -3 -2189 c-2
-1973 -1 -2191 13 -2213 25 -37 58 -48 92 -31 15 8 98 69 184 136 86 67 160
122 163 122 3 0 81 -59 172 -130 91 -72 176 -133 190 -136 30 -8 37 -3 222
143 81 63 152 117 158 120 7 2 75 -45 151 -105 187 -148 212 -164 242 -157 13
3 99 65 189 136 91 71 171 128 178 125 7 -3 84 -61 171 -129 162 -127 187
-142 218 -131 10 4 92 65 182 136 91 70 168 128 172 128 3 0 80 -59 171 -130
91 -72 175 -133 187 -136 26 -7 53 8 156 88 l74 58 85 -40 c47 -22 130 -52
184 -67 90 -25 113 -28 264 -27 146 1 177 4 265 27 313 84 575 301 709 588
135 290 136 621 2 905 -58 123 -114 203 -209 301 -165 170 -379 281 -604 313
l-82 12 -3 1137 -3 1136 -23 57 c-32 80 -99 150 -180 190 l-67 33 -1655 2
c-1291 1 -1665 -1 -1701 -11z m3322 -146 c56 -16 101 -51 129 -100 l25 -45 0
-1125 0 -1125 -73 -12 c-296 -49 -539 -193 -713 -422 -154 -204 -235 -491
-209 -745 26 -259 127 -471 313 -660 l89 -90 -34 -28 c-18 -15 -37 -28 -43
-28 -5 0 -82 57 -170 126 -88 69 -171 130 -184 135 -34 13 -66 -6 -241 -144
-83 -66 -156 -117 -163 -114 -6 3 -82 60 -167 127 -85 67 -165 126 -177 131
-13 5 -33 5 -45 0 -13 -5 -93 -64 -178 -131 -85 -67 -160 -124 -167 -127 -7
-3 -85 52 -174 122 -167 131 -197 149 -226 138 -10 -3 -85 -59 -168 -123 -82
-64 -160 -123 -171 -130 -20 -12 -34 -3 -183 114 -88 69 -171 131 -184 137
-33 15 -57 2 -192 -105 -66 -53 -123 -96 -127 -96 -14 0 -10 4125 4 4178 14
58 78 125 134 140 53 14 3245 16 3295 2z m157 -2641 l3 -86 -82 -16 c-201 -39
-398 -183 -502 -367 -97 -172 -120 -412 -57 -594 70 -204 235 -383 426 -460
391 -159 840 39 985 434 92 254 44 529 -131 739 -96 115 -263 216 -412 248
l-78 16 0 89 c0 48 4 88 8 88 26 0 136 -24 192 -42 387 -125 644 -476 643
-883 0 -252 -96 -480 -274 -656 -361 -356 -937 -356 -1298 0 -310 306 -364
794 -128 1159 135 208 351 356 597 407 107 22 105 24 108 -76z m107 -394 c15
-15 25 -36 25 -54 0 -24 7 -33 38 -48 101 -53 149 -213 72 -238 -27 -9 -70 19
-70 46 0 36 -30 80 -66 95 -76 32 -152 -44 -120 -120 16 -39 60 -66 106 -66
68 0 156 -71 180 -145 28 -86 -19 -201 -97 -239 -35 -18 -42 -26 -43 -51 0
-44 -25 -75 -60 -75 -35 0 -60 32 -60 77 0 21 -5 33 -13 33 -22 0 -81 49 -104
87 -46 76 -35 163 20 163 35 0 46 -12 62 -67 17 -57 47 -83 95 -83 42 0 77 25
90 64 21 65 -20 114 -107 128 -98 15 -160 69 -184 161 -24 87 22 187 104 230
30 15 37 25 37 48 0 30 38 79 60 79 6 0 22 -11 35 -25z m-455 -385 c27 -27 26
-77 -2 -107 -45 -49 -128 -14 -128 54 0 44 30 73 75 73 22 0 43 -8 55 -20z
m950 0 c27 -27 27 -83 -2 -110 -48 -44 -128 -9 -128 57 0 44 30 73 75 73 22 0
43 -8 55 -20z"/>
<path d="M1196 4494 c-9 -8 -18 -25 -21 -37 -3 -12 -5 -145 -3 -295 3 -257 4
-274 22 -288 28 -20 73 -17 96 6 18 18 20 33 20 130 l0 110 125 0 c120 0 127
1 150 25 30 29 32 58 5 85 -18 18 -33 20 -150 20 l-130 0 0 65 0 65 133 0
c145 0 176 9 191 52 7 20 5 33 -8 52 l-16 26 -200 0 c-167 0 -201 -2 -214 -16z"/>
<path d="M1787 4492 c-15 -16 -17 -53 -17 -310 0 -289 0 -291 22 -306 18 -13
57 -16 213 -16 156 0 195 3 213 16 28 19 29 67 2 94 -18 18 -33 20 -170 20
l-150 0 0 64 0 64 141 4 c126 3 142 5 155 22 19 27 18 70 -4 89 -15 14 -42 17
-155 17 l-137 0 0 65 0 65 134 0 c172 0 205 11 206 71 0 55 -18 59 -237 59
-181 0 -201 -2 -216 -18z"/>
<path d="M2407 4492 c-15 -16 -17 -53 -17 -310 0 -289 0 -291 22 -306 18 -13
57 -16 213 -16 156 0 195 3 213 16 28 19 29 67 2 94 -18 18 -33 20 -170 20
l-150 0 0 64 0 64 141 4 c126 3 142 5 155 22 18 26 18 56 -2 84 -14 21 -22 22
-155 22 l-139 0 0 65 0 65 134 0 c172 0 205 11 206 71 0 55 -18 59 -237 59
-181 0 -201 -2 -216 -18z"/>
<path d="M701 3524 c-12 -15 -21 -33 -21 -40 0 -26 23 -62 47 -73 17 -8 288
-11 932 -11 904 0 908 0 935 21 33 26 36 79 6 109 -20 20 -33 20 -949 20
l-930 0 -20 -26z"/>
<path d="M2861 3524 c-24 -30 -26 -43 -10 -77 19 -41 48 -47 238 -47 165 0
180 2 205 21 33 26 36 79 6 109 -19 19 -33 20 -219 20 l-200 0 -20 -26z"/>
<path d="M709 3131 c-34 -35 -37 -59 -8 -95 l20 -26 930 0 c916 0 929 0 949
20 27 27 26 81 -1 106 -20 18 -52 19 -941 22 l-919 2 -30 -29z"/>
<path d="M2884 3149 c-22 -11 -44 -48 -44 -73 0 -7 9 -25 21 -40 l20 -26 200
0 c186 0 200 1 219 20 27 27 26 81 -1 106 -19 17 -40 19 -208 21 -116 1 -194
-2 -207 -8z"/>
<path d="M711 2743 c-11 -10 -24 -32 -27 -50 -5 -26 -1 -37 19 -57 l26 -26
924 0 c915 0 923 0 945 20 32 30 30 82 -4 109 -27 21 -31 21 -944 21 -859 0
-919 -1 -939 -17z"/>
<path d="M2865 2735 c-14 -13 -25 -36 -25 -50 0 -14 11 -37 25 -50 24 -25 25
-25 218 -25 189 0 194 0 215 23 31 33 29 80 -4 106 -25 20 -40 21 -216 21
-187 0 -189 0 -213 -25z"/>
<path d="M701 2334 c-12 -15 -21 -33 -21 -40 0 -26 23 -62 47 -73 17 -8 288
-11 932 -11 904 0 908 0 935 21 33 26 36 79 6 109 -20 20 -33 20 -949 20
l-930 0 -20 -26z"/>
<path d="M2861 2334 c-24 -30 -26 -43 -10 -78 19 -42 52 -48 247 -44 160 3
182 5 201 22 27 25 28 79 1 106 -19 19 -33 20 -219 20 l-200 0 -20 -26z"/>
<path d="M700 1663 c-20 -26 -21 -35 -18 -306 l3 -279 24 -19 c30 -25 62 -24
95 2 l26 20 0 285 c0 271 -1 285 -20 304 -30 30 -83 27 -110 -7z"/>
<path d="M981 1664 c-19 -25 -21 -40 -21 -205 0 -190 6 -219 47 -238 34 -16
47 -14 77 10 l26 20 0 200 c0 186 -1 200 -20 219 -30 30 -83 27 -109 -6z"/>
<path d="M1260 1663 c-20 -26 -21 -35 -18 -306 l3 -279 24 -19 c30 -25 62 -24
95 2 l26 20 0 285 c0 271 -1 285 -20 304 -30 30 -83 27 -110 -7z"/>
<path d="M1820 1663 c-20 -26 -21 -35 -18 -306 l3 -279 24 -19 c30 -25 62 -24
95 2 l26 20 0 285 c0 271 -1 285 -20 304 -30 30 -83 27 -110 -7z"/>
<path d="M1563 1548 c-39 -19 -44 -53 -41 -267 3 -199 3 -203 27 -222 30 -25
62 -24 95 2 l26 20 0 215 c0 215 0 215 -25 239 -26 27 -47 30 -82 13z"/>
</g>
</svg>
