<?xml version="1.0" standalone="no"?>
<!DOCTYPE svg PUBLIC "-//W3C//DTD SVG 20010904//EN"
 "http://www.w3.org/TR/2001/REC-SVG-20010904/DTD/svg10.dtd">
<svg version="1.0" xmlns="http://www.w3.org/2000/svg"
 width="512.000000pt" height="512.000000pt" viewBox="0 0 512.000000 512.000000"
 preserveAspectRatio="xMidYMid meet">

<g transform="translate(0.000000,512.000000) scale(0.100000,-0.100000)"
fill="#0d6efd" stroke="none">
<path d="M1209 5101 c-22 -18 -24 -27 -24 -106 0 -79 2 -88 24 -106 31 -25 63
-24 89 4 19 20 22 35 22 103 0 71 -3 83 -23 102 -29 27 -57 28 -88 3z"/>
<path d="M2441 4899 c-285 -30 -543 -158 -744 -368 -343 -360 -430 -893 -218
-1337 175 -366 496 -610 891 -678 667 -114 1305 362 1390 1038 85 674 -406
1281 -1088 1346 -118 11 -112 11 -231 -1z m350 -153 c187 -41 362 -134 504
-268 178 -168 287 -374 325 -610 18 -112 8 -331 -20 -433 -78 -287 -267 -529
-523 -670 -248 -136 -578 -165 -847 -75 -416 140 -706 522 -727 961 -27 547
364 1022 913 1109 79 12 293 4 375 -14z"/>
<path d="M2166 4288 c-20 -28 -20 -58 -2 -84 13 -17 31 -20 163 -25 162 -6
201 -18 254 -76 31 -33 59 -74 59 -85 0 -5 -103 -8 -228 -8 -209 0 -230 -2
-245 -18 -24 -26 -21 -75 4 -98 19 -17 42 -19 245 -22 l223 -4 -19 -38 c-22
-43 -70 -87 -117 -107 -22 -9 -78 -13 -173 -13 -136 0 -142 -1 -165 -25 -14
-13 -25 -34 -25 -47 0 -16 61 -82 223 -239 282 -274 322 -309 352 -309 27 0
65 42 65 74 0 14 -63 82 -197 212 l-197 191 64 6 c136 14 266 113 311 237 l22
60 81 0 c87 0 97 3 115 37 29 55 -4 93 -83 93 -94 0 -115 8 -126 49 -5 20 -21
55 -34 79 l-25 42 118 0 c104 0 120 2 139 20 31 29 29 73 -4 99 -26 20 -37 21
-405 21 l-378 0 -15 -22z"/>
<path d="M977 4872 c-22 -25 -21 -75 1 -95 14 -13 39 -17 105 -17 81 0 87 2
106 26 12 15 21 32 21 39 0 7 -9 24 -21 39 -19 25 -25 26 -108 26 -72 0 -91
-3 -104 -18z"/>
<path d="M1317 4872 c-22 -25 -22 -75 1 -95 25 -23 183 -24 206 -2 26 27 29
56 9 84 -19 24 -26 26 -110 29 -77 2 -92 0 -106 -16z"/>
<path d="M1209 4761 c-22 -18 -24 -27 -24 -106 0 -79 2 -88 24 -106 31 -25 63
-24 89 4 19 20 22 35 22 103 0 71 -3 83 -23 102 -29 27 -57 28 -88 3z"/>
<path d="M4191 4324 c-17 -22 -21 -41 -21 -101 0 -65 3 -77 25 -98 13 -14 34
-25 45 -25 12 0 32 11 45 25 22 21 25 33 25 98 0 88 -22 127 -70 127 -19 0
-36 -9 -49 -26z"/>
<path d="M3967 4102 c-22 -25 -21 -75 1 -95 28 -26 182 -24 205 1 22 25 21 75
-1 95 -28 26 -182 24 -205 -1z"/>
<path d="M4307 4102 c-22 -25 -21 -75 1 -95 14 -13 39 -17 104 -17 94 0 121
14 121 65 0 51 -27 65 -123 65 -71 0 -90 -3 -103 -18z"/>
<path d="M4191 3984 c-17 -22 -21 -41 -21 -101 0 -65 3 -77 25 -98 13 -14 34
-25 45 -25 12 0 32 11 45 25 22 21 25 33 25 98 0 88 -22 127 -70 127 -19 0
-36 -9 -49 -26z"/>
<path d="M3585 2226 c-48 -15 -114 -48 -300 -151 l-140 -77 -270 5 c-302 5
-309 6 -473 80 -267 121 -488 146 -737 83 -181 -46 -293 -112 -515 -301 -58
-50 -185 -124 -194 -114 -2 2 -22 67 -45 144 -27 90 -49 146 -63 158 -18 15
-52 17 -390 17 -233 0 -376 -4 -388 -10 -11 -6 -24 -19 -30 -29 -7 -14 23
-287 110 -998 66 -539 122 -987 126 -997 3 -9 15 -21 25 -26 11 -6 230 -10
566 -10 609 0 593 -2 593 63 0 17 -29 127 -65 243 -36 117 -65 218 -65 226 0
24 425 289 490 307 55 14 59 14 560 -79 332 -61 539 -95 605 -98 176 -8 372
31 520 104 63 30 1501 1011 1568 1069 36 31 35 66 -5 122 -111 154 -335 210
-515 128 l-51 -23 -34 35 c-18 19 -62 49 -98 66 -57 28 -74 32 -150 32 -73 0
-93 -4 -141 -27 -31 -16 -59 -28 -62 -28 -3 0 -25 13 -49 29 -71 48 -155 71
-255 70 -48 0 -106 -6 -128 -13z m257 -144 l42 -18 -142 -77 -143 -78 -72 35
c-40 19 -81 37 -92 41 -16 5 -2 16 65 53 47 25 105 52 130 59 57 16 157 9 212
-15z m-1750 -36 c88 -18 155 -41 269 -94 159 -75 158 -74 609 -81 395 -7 406
-7 465 -31 83 -32 174 -123 204 -204 12 -32 20 -60 18 -63 -2 -2 -109 2 -238
8 -226 11 -506 7 -618 -10 -34 -5 -59 -15 -67 -26 -20 -28 -17 -72 7 -96 18
-18 28 -20 67 -14 136 21 381 21 809 0 135 -7 142 -6 162 14 12 12 21 34 21
49 0 27 19 39 413 251 449 243 476 254 575 233 54 -11 132 -55 138 -77 2 -5
-328 -236 -731 -513 -794 -544 -786 -539 -975 -578 -62 -12 -115 -15 -218 -11
-117 4 -205 17 -597 91 -501 94 -567 100 -657 66 -29 -11 -145 -78 -258 -149
-174 -110 -206 -127 -213 -113 -19 43 -277 907 -274 916 3 6 21 17 42 25 64
23 147 77 220 143 180 162 289 223 475 262 86 19 260 20 352 2z m2223 -7 c24
-11 49 -26 54 -33 8 -9 -67 -53 -291 -175 -165 -89 -301 -161 -302 -159 -2 2
-19 33 -39 70 l-36 67 82 45 c367 200 380 206 435 206 32 0 69 -8 97 -21z
m-3551 -126 c3 -10 124 -410 270 -890 146 -480 266 -875 266 -878 0 -3 -204
-4 -452 -3 l-453 3 -107 875 c-59 481 -107 883 -108 893 0 16 20 17 289 17
267 0 290 -1 295 -17z"/>
<path d="M768 610 c-85 -16 -168 -113 -168 -194 0 -119 95 -216 210 -216 88 0
154 43 191 125 69 151 -67 318 -233 285z m86 -151 c19 -15 26 -30 26 -54 0
-36 -36 -75 -70 -75 -34 0 -70 39 -70 75 0 36 36 75 70 75 10 0 29 -9 44 -21z"/>
</g>
</svg>
