<?xml version="1.0" standalone="no"?>
<!DOCTYPE svg PUBLIC "-//W3C//DTD SVG 20010904//EN"
 "http://www.w3.org/TR/2001/REC-SVG-20010904/DTD/svg10.dtd">
<svg version="1.0" xmlns="http://www.w3.org/2000/svg"
 width="512.000000pt" height="512.000000pt" viewBox="0 0 512.000000 512.000000"
 preserveAspectRatio="xMidYMid meet">

<g transform="translate(0.000000,512.000000) scale(0.100000,-0.100000)"
fill="#0d6efd" stroke="none">
<path d="M2425 5111 c-27 -5 -169 -39 -315 -75 -183 -46 -287 -78 -336 -102
-141 -69 -254 -184 -324 -329 -61 -125 -70 -193 -70 -501 0 -242 -2 -268 -18
-292 -11 -15 -24 -42 -30 -61 -16 -46 -15 -292 0 -345 18 -59 100 -141 158
-156 25 -7 51 -14 58 -16 6 -2 12 -16 12 -32 0 -47 46 -211 79 -286 18 -38 52
-99 76 -136 51 -76 198 -221 268 -265 l48 -30 -3 -77 c-3 -81 -17 -112 -69
-150 -16 -12 -96 -33 -219 -58 -230 -46 -317 -73 -465 -145 -352 -170 -625
-483 -750 -859 -63 -188 -67 -224 -72 -546 -5 -282 -4 -298 17 -359 47 -141
143 -231 289 -275 49 -14 224 -16 1792 -16 1249 0 1753 3 1791 11 145 31 259
135 308 280 21 61 22 77 17 359 -5 322 -9 358 -72 546 -124 374 -392 682 -740
854 -156 77 -239 103 -475 150 -123 25 -203 46 -219 58 -52 38 -66 69 -69 150
l-3 77 48 30 c78 48 218 190 274 278 66 103 114 221 135 334 21 116 20 113 46
113 68 1 173 91 196 168 7 22 12 101 12 179 0 136 -1 142 -30 199 -28 56 -30
66 -30 181 0 67 -3 129 -6 138 -10 26 -63 45 -93 34 -43 -17 -50 -38 -51 -136
0 -51 -2 -93 -4 -93 -3 0 -69 16 -148 35 -333 81 -603 110 -958 102 -313 -8
-523 -34 -803 -103 -76 -19 -141 -34 -143 -34 -3 0 -4 114 -2 253 5 269 9 292
66 402 50 96 169 205 267 245 28 11 167 50 310 87 253 65 263 66 385 66 121 0
133 -2 390 -67 166 -42 289 -79 329 -99 128 -63 240 -194 283 -331 26 -85 51
-116 90 -116 34 0 78 39 78 69 0 11 -11 55 -25 98 -41 132 -133 263 -238 342
-102 77 -178 106 -472 181 -254 64 -291 71 -400 75 -66 2 -142 0 -170 -4z
m550 -1235 c197 -26 509 -88 528 -105 13 -13 -110 -121 -169 -148 -64 -29
-109 -29 -324 2 -159 22 -418 32 -617 23 -93 -4 -220 -14 -283 -23 -63 -9
-150 -19 -193 -22 -72 -5 -82 -3 -140 25 -35 18 -85 55 -116 86 l-54 55 54 15
c133 39 423 89 614 106 143 12 558 4 700 -14z m-1266 -384 c98 -49 171 -53
388 -21 138 21 196 24 463 24 268 0 324 -3 464 -24 286 -42 379 -19 545 135
l83 77 -4 -122 c-3 -120 -4 -123 -31 -147 -17 -14 -41 -24 -60 -24 -18 0 -50
-10 -72 -23 -46 -26 -67 -72 -84 -186 -25 -163 -98 -308 -215 -426 -355 -358
-897 -358 -1252 0 -121 122 -187 256 -220 445 -9 52 -22 107 -30 122 -17 33
-81 68 -123 68 -17 0 -42 10 -58 24 -27 24 -28 27 -31 147 l-4 122 84 -77 c54
-50 109 -90 157 -114z m611 -1129 c82 -22 115 -26 240 -26 144 0 179 6 356 58
19 6 22 2 27 -45 8 -70 42 -136 95 -187 l43 -42 -83 -66 c-154 -122 -296 -173
-454 -161 -148 11 -240 51 -390 173 l-91 73 35 38 c44 46 71 106 79 173 5 46
8 50 27 44 12 -3 64 -18 116 -32z m-300 -383 c58 -48 130 -103 160 -123 125
-82 283 -123 445 -114 185 10 302 62 504 223 138 109 132 107 204 87 16 -4 17
-34 17 -459 l0 -454 -780 0 -780 0 2 457 3 458 50 11 c28 6 55 8 60 6 6 -3 57
-45 115 -92z m-380 -399 l0 -438 -72 -5 c-61 -4 -103 -16 -160 -46 -5 -2 -8
51 -8 119 0 142 -8 159 -71 159 -29 0 -42 -6 -58 -26 -20 -25 -21 -39 -21
-270 l0 -244 -325 0 -325 0 6 43 c32 231 103 422 227 607 63 94 238 270 337
339 l75 52 5 -126 c5 -118 7 -128 29 -146 30 -25 76 -24 101 1 18 18 20 33 20
184 0 147 2 165 18 171 43 19 189 64 205 65 16 0 17 -27 17 -439z m1981 403
l109 -36 0 -428 0 -428 -42 20 c-26 13 -71 23 -115 26 l-73 5 0 438 c0 242 3
439 6 439 3 0 55 -16 115 -36z m505 -319 c118 -117 185 -208 254 -345 70 -139
101 -245 136 -457 l5 -33 -316 0 -315 0 0 516 0 515 63 -43 c34 -23 112 -92
173 -153z m-496 -695 c58 -29 81 -69 91 -155 10 -88 26 -128 87 -218 l47 -69
0 -187 0 -186 -1295 0 -1295 0 0 170 c0 94 3 182 7 197 5 14 28 51 54 82 56
69 81 124 89 196 10 85 13 96 42 131 52 61 -5 58 1111 59 1000 0 1024 0 1062
-20z m-2484 -362 l-31 -62 -3 -199 -4 -199 -156 4 c-152 3 -159 4 -211 33 -56
31 -106 88 -128 148 -7 19 -12 94 -12 185 l-1 152 288 0 289 0 -31 -62z m3373
-90 c0 -91 -5 -166 -12 -185 -22 -60 -72 -117 -128 -148 -52 -29 -59 -30 -211
-33 l-156 -4 -4 203 c-3 214 -2 206 -56 312 -2 4 125 7 282 7 l286 0 -1 -152z"/>
<path d="M2244 4701 c-55 -14 -102 -50 -123 -95 -17 -34 -21 -62 -21 -144 0
-111 8 -143 48 -185 54 -57 53 -57 412 -57 359 0 358 0 412 57 40 42 48 74 48
185 0 128 -19 175 -88 216 l-47 27 -305 2 c-168 1 -319 -2 -336 -6z m621 -241
l0 -85 -305 0 -305 0 -3 74 c-2 41 -1 80 2 88 5 11 61 13 308 11 l303 -3 0
-85z"/>
</g>
</svg>
