<?xml version="1.0" standalone="no"?>
<!DOCTYPE svg PUBLIC "-//W3C//DTD SVG 20010904//EN"
 "http://www.w3.org/TR/2001/REC-SVG-20010904/DTD/svg10.dtd">
<svg version="1.0" xmlns="http://www.w3.org/2000/svg"
 width="512.000000pt" height="512.000000pt" viewBox="0 0 512.000000 512.000000"
 preserveAspectRatio="xMidYMid meet">

<g transform="translate(0.000000,512.000000) scale(0.100000,-0.100000)"
fill="#0d6efd" stroke="none">
<path d="M2189 4941 c-24 -19 -24 -22 -29 -262 l-5 -243 -55 -13 c-166 -41
-385 -131 -525 -216 l-60 -37 -167 167 c-154 154 -170 167 -203 167 -34 0 -52
-16 -282 -247 -231 -230 -247 -248 -247 -282 0 -33 13 -49 167 -203 l167 -167
-37 -60 c-85 -140 -175 -359 -216 -525 l-13 -55 -243 -5 c-240 -5 -243 -5
-262 -29 -18 -22 -19 -44 -19 -371 0 -327 1 -349 19 -371 19 -24 22 -24 262
-29 l243 -5 13 -55 c41 -166 131 -385 216 -525 l37 -60 -167 -167 c-154 -154
-167 -170 -167 -203 0 -33 16 -52 235 -271 128 -129 247 -242 262 -250 16 -9
37 -12 50 -9 12 4 96 81 187 171 l165 164 59 -36 c145 -87 327 -163 494 -208
l87 -23 5 -242 c5 -240 5 -243 29 -262 22 -18 44 -19 371 -19 327 0 349 1 371
19 24 19 24 22 29 262 l5 242 87 23 c167 45 349 121 494 208 l59 36 350 -349
c378 -377 394 -389 519 -412 263 -49 506 194 457 457 -23 125 -35 141 -412
519 l-349 350 36 59 c87 145 163 327 208 494 l23 87 242 5 c240 5 243 5 262
29 18 22 19 44 19 371 0 327 -1 349 -19 371 -19 24 -22 24 -262 29 l-243 5
-13 55 c-41 166 -131 385 -216 525 l-37 60 167 167 c154 154 167 170 167 203
0 34 -16 52 -247 282 -230 231 -248 247 -282 247 -33 0 -49 -13 -203 -167
l-167 -166 -40 25 c-136 85 -326 166 -500 214 l-100 27 -5 242 c-5 240 -5 243
-29 262 -22 18 -44 19 -371 19 -327 0 -349 -1 -371 -19z m611 -369 c0 -213 1
-230 20 -249 22 -24 19 -23 160 -57 183 -43 365 -121 531 -227 118 -76 112
-78 303 111 l162 159 167 -167 166 -167 -159 -161 c-189 -191 -187 -185 -111
-303 104 -162 185 -352 227 -529 34 -143 33 -140 57 -162 19 -19 36 -20 249
-20 l228 0 0 -240 0 -240 -228 0 c-213 0 -230 -1 -249 -20 -24 -22 -23 -19
-57 -162 -32 -133 -80 -259 -153 -400 l-57 -109 -117 117 -118 117 25 48 c42
83 83 195 108 296 101 397 29 814 -200 1159 -74 110 -222 266 -333 349 -103
78 -284 172 -406 213 -172 57 -241 67 -460 67 -180 -1 -211 -3 -311 -27 -271
-64 -507 -194 -698 -383 -222 -220 -361 -490 -412 -805 -23 -140 -14 -399 19
-540 62 -263 179 -477 367 -673 207 -217 455 -355 753 -419 136 -29 417 -32
550 -5 113 23 248 67 352 116 l83 39 116 -117 116 -117 -72 -39 c-157 -85
-310 -145 -465 -180 -37 -8 -78 -17 -90 -20 -12 -3 -32 -15 -43 -27 -19 -21
-20 -35 -20 -250 l0 -228 -240 0 -240 0 0 228 c0 213 -1 230 -20 249 -22 24
-19 23 -162 57 -177 42 -367 123 -529 227 -118 76 -112 78 -303 -111 l-162
-159 -167 167 -166 167 159 161 c189 191 187 185 111 303 -103 162 -182 344
-226 526 -33 136 -43 163 -66 175 -10 6 -118 10 -243 10 l-226 0 0 240 0 240
228 0 c213 0 230 1 249 20 24 22 23 19 57 162 42 177 123 367 227 529 76 118
78 112 -111 303 l-159 162 167 167 167 166 161 -159 c192 -190 184 -187 307
-109 160 103 357 186 547 230 108 25 138 37 150 60 6 10 10 118 10 243 l0 226
240 0 240 0 0 -228z m-45 -747 c142 -23 231 -51 360 -114 618 -302 886 -1012
623 -1649 -16 -39 -33 -72 -37 -72 -14 0 -440 437 -457 470 -16 30 -19 54 -17
159 3 146 -8 226 -46 338 -84 245 -293 438 -552 509 -89 25 -309 25 -397 1
-91 -26 -169 -62 -181 -85 -29 -55 -22 -65 209 -297 l220 -221 0 -112 0 -112
-112 0 -112 0 -221 220 c-232 231 -242 238 -297 209 -23 -12 -59 -90 -85 -181
-24 -88 -24 -308 1 -397 71 -259 264 -468 509 -552 112 -38 192 -49 338 -46
105 2 129 -1 159 -17 33 -17 470 -443 470 -457 0 -9 -127 -62 -212 -88 -174
-53 -430 -64 -607 -26 -546 116 -944 541 -1022 1094 -7 53 -10 136 -6 220 27
615 484 1120 1096 1210 93 14 280 12 376 -4z m-190 -510 c91 -19 218 -83 288
-146 77 -68 150 -182 183 -282 24 -74 27 -98 29 -247 2 -173 9 -210 57 -289
12 -20 384 -400 828 -846 860 -864 830 -830 830 -925 0 -124 -116 -240 -240
-240 -95 0 -61 -30 -925 830 -489 487 -828 818 -855 833 -77 45 -151 59 -270
52 -79 -5 -125 -3 -185 10 -313 64 -529 342 -512 660 3 50 8 98 12 108 6 15
39 -13 194 -167 l187 -186 203 0 c271 0 251 -20 251 251 l0 203 -187 187
c-200 202 -191 187 -118 202 45 10 165 6 230 -8z"/>
<path d="M2959 2161 c-26 -27 -30 -37 -25 -64 8 -42 81 -115 123 -123 27 -5
37 -1 64 25 26 27 30 37 25 64 -8 42 -81 115 -123 123 -27 5 -37 1 -64 -25z"/>
<path d="M3240 1880 c-13 -13 -20 -33 -20 -57 0 -36 19 -56 488 -526 286 -287
501 -495 520 -503 66 -29 127 32 98 98 -8 19 -216 234 -503 521 -470 468 -490
487 -526 487 -24 0 -44 -7 -57 -20z"/>
<path d="M4450 707 c-37 -19 -55 -61 -40 -96 14 -35 77 -97 108 -106 54 -16
113 43 97 97 -9 29 -61 85 -97 104 -33 17 -36 17 -68 1z"/>
</g>
</svg>
